<svg width="24" height="24" viewBox="0 0 24 24" fill="none" xmlns="http://www.w3.org/2000/svg">
<path d="M11.9999 12C13.326 12 14.5978 11.4732 15.5354 10.5355C16.4731 9.59785 16.9999 8.32608 16.9999 7C16.9999 5.67392 16.4731 4.40215 15.5354 3.46447C14.5978 2.52678 13.326 2 11.9999 2C10.6738 2 9.40206 2.52678 8.46438 3.46447C7.5267 4.40215 6.99991 5.67392 6.99991 7C6.99991 8.32608 7.5267 9.59785 8.46438 10.5355C9.40206 11.4732 10.6738 12 11.9999 12ZM11.9999 14.5C6.98991 14.5 2.90991 17.86 2.90991 22C2.90991 22.28 3.12991 22.5 3.40991 22.5H20.5899C20.8699 22.5 21.0899 22.28 21.0899 22C21.0899 17.86 17.0099 14.5 11.9999 14.5Z" fill="#010F07"/>
</svg>
