<svg width="25" height="24" viewBox="0 0 25 24" fill="none" xmlns="http://www.w3.org/2000/svg">
<path fill-rule="evenodd" clip-rule="evenodd" d="M7.65536 8.12704C7.65536 5.72799 9.60036 3.78345 11.9998 3.78345H16.3443V8.12704C16.3443 10.5263 14.3991 12.4715 11.9998 12.4715C9.60058 12.4715 7.65536 10.5263 7.65536 8.12704ZM11.9998 1.78345C8.49623 1.78345 5.65536 4.62298 5.65536 8.12704C5.65536 11.6309 8.49601 14.4715 11.9998 14.4715C15.5037 14.4715 18.3443 11.6309 18.3443 8.12704V2.78345C18.3443 2.23116 17.8966 1.78345 17.3443 1.78345H11.9998ZM8.19085 15.5873C5.04375 15.5873 2.42201 17.9968 2.1561 21.132C2.10943 21.6823 2.5177 22.1662 3.06801 22.2129C3.61832 22.2596 4.10227 21.8513 4.14895 21.301C4.32706 19.2009 6.08298 17.5873 8.19085 17.5873H15.8092C17.9163 17.5873 19.673 19.201 19.8511 21.301C19.8978 21.8513 20.3817 22.2596 20.932 22.2129C21.4824 22.1662 21.8906 21.6823 21.844 21.132C21.578 17.9966 18.9553 15.5873 15.8092 15.5873H8.19085ZM11.5455 9.27095C11.1549 8.88042 10.5218 8.88042 10.1312 9.27095C9.74072 9.66147 9.74072 10.2946 10.1312 10.6852C11.221 11.7749 12.9878 11.7749 14.0775 10.6852C14.4681 10.2946 14.4681 9.66147 14.0775 9.27095C13.687 8.88043 13.0538 8.88043 12.6633 9.27095C12.3546 9.57964 11.8541 9.57964 11.5455 9.27095Z" fill="#979797"/>
</svg>
