<svg width="25" height="24" viewBox="0 0 25 24" fill="none" xmlns="http://www.w3.org/2000/svg">
<path fill-rule="evenodd" clip-rule="evenodd" d="M7.65524 8.12704C7.65524 5.72799 9.60024 3.78345 11.9997 3.78345H16.3442V8.12704C16.3442 10.5263 14.399 12.4715 11.9997 12.4715C9.60046 12.4715 7.65524 10.5263 7.65524 8.12704ZM11.9997 1.78345C8.4961 1.78345 5.65524 4.62298 5.65524 8.12704C5.65524 11.6309 8.49589 14.4715 11.9997 14.4715C15.5036 14.4715 18.3442 11.6309 18.3442 8.12704V2.78345C18.3442 2.23116 17.8965 1.78345 17.3442 1.78345H11.9997ZM8.19072 15.5873C5.04363 15.5873 2.42189 17.9968 2.15598 21.132C2.1093 21.6823 2.51758 22.1662 3.06789 22.2129C3.6182 22.2596 4.10215 21.8513 4.14882 21.301C4.32694 19.2009 6.08285 17.5873 8.19072 17.5873H15.8091C17.9162 17.5873 19.6729 19.201 19.851 21.301C19.8977 21.8513 20.3816 22.2596 20.9319 22.2129C21.4822 22.1662 21.8905 21.6823 21.8438 21.132C21.5779 17.9966 18.9552 15.5873 15.8091 15.5873H8.19072ZM11.5453 9.27095C11.1548 8.88042 10.5216 8.88042 10.1311 9.27095C9.74059 9.66147 9.74059 10.2946 10.1311 10.6852C11.2209 11.7749 12.9877 11.7749 14.0774 10.6852C14.4679 10.2946 14.4679 9.66147 14.0774 9.27095C13.6869 8.88043 13.0537 8.88043 12.6632 9.27095C12.3545 9.57964 11.854 9.57964 11.5453 9.27095Z" fill="white"/>
</svg>
