<svg width="25" height="24" viewBox="0 0 25 24" fill="none" xmlns="http://www.w3.org/2000/svg">
<mask id="path-1-inside-1_59_1685" fill="white">
<path fill-rule="evenodd" clip-rule="evenodd" d="M4.59325 7.16593C3.59 7.92169 3 9.1048 3 10.3609V19.275C3 20.9318 4.34315 22.275 6 22.275H18.9029C20.5597 22.275 21.9029 20.9318 21.9029 19.275V10.3599C21.9029 9.10439 21.3134 7.92171 20.3109 7.1659L14.2604 2.60449C13.1917 1.79876 11.7185 1.79848 10.6494 2.60381L4.59325 7.16593Z"/>
</mask>
<path d="M4.59325 7.16593L5.49578 8.36403L5.49578 8.36403L4.59325 7.16593ZM20.3109 7.1659L21.2138 5.96815L20.3109 7.1659ZM14.2604 2.60449L13.3574 3.80225H13.3574L14.2604 2.60449ZM10.6494 2.60381L9.74686 1.40571L9.74686 1.40571L10.6494 2.60381ZM4.5 10.3609C4.5 9.57582 4.86875 8.83638 5.49578 8.36403L3.69071 5.96784C2.31124 7.007 1.5 8.63378 1.5 10.3609H4.5ZM4.5 19.275V10.3609H1.5V19.275H4.5ZM6 20.775C5.17157 20.775 4.5 20.1034 4.5 19.275H1.5C1.5 21.7603 3.51472 23.775 6 23.775V20.775ZM18.9029 20.775H6V23.775H18.9029V20.775ZM20.4029 19.275C20.4029 20.1034 19.7313 20.775 18.9029 20.775V23.775C21.3882 23.775 23.4029 21.7603 23.4029 19.275H20.4029ZM20.4029 10.3599V19.275H23.4029V10.3599H20.4029ZM19.4079 8.36365C20.0345 8.83604 20.4029 9.57521 20.4029 10.3599H23.4029C23.4029 8.63357 22.5923 7.00739 21.2138 5.96815L19.4079 8.36365ZM13.3574 3.80225L19.4079 8.36365L21.2138 5.96815L15.1634 1.40674L13.3574 3.80225ZM11.5519 3.8019C12.0865 3.39924 12.8231 3.39938 13.3574 3.80225L15.1634 1.40674C13.5603 0.198135 11.3505 0.197716 9.74686 1.40571L11.5519 3.8019ZM5.49578 8.36403L11.5519 3.8019L9.74686 1.40571L3.69071 5.96784L5.49578 8.36403Z" fill="#979797" mask="url(#path-1-inside-1_59_1685)"/>
</svg>
