<svg width="24" height="24" viewBox="0 0 24 24" fill="none" xmlns="http://www.w3.org/2000/svg">
<path d="M15.24 22.27H15.11C10.67 22.27 8.52997 20.52 8.15997 16.6C8.11997 16.19 8.41997 15.82 8.83997 15.78C9.24997 15.74 9.61997 16.05 9.65997 16.46C9.94997 19.6 11.43 20.77 15.12 20.77H15.25C19.32 20.77 20.76 19.33 20.76 15.26V8.73998C20.76 4.66998 19.32 3.22998 15.25 3.22998H15.12C11.41 3.22998 9.92997 4.41998 9.65997 7.61998C9.60997 8.02998 9.26997 8.33998 8.83997 8.29998C8.74141 8.29228 8.64534 8.2652 8.55727 8.22028C8.46921 8.17537 8.39087 8.11351 8.32677 8.03826C8.26266 7.96301 8.21404 7.87583 8.1837 7.78175C8.15336 7.68766 8.1419 7.58851 8.14997 7.48998C8.48997 3.50998 10.64 1.72998 15.11 1.72998H15.24C20.15 1.72998 22.25 3.82998 22.25 8.73998V15.26C22.25 20.17 20.15 22.27 15.24 22.27Z" fill="white"/>
<path d="M14.88 12.75H2C1.59 12.75 1.25 12.41 1.25 12C1.25 11.59 1.59 11.25 2 11.25H14.88C15.0789 11.25 15.2697 11.329 15.4103 11.4697C15.551 11.6103 15.63 11.8011 15.63 12C15.63 12.1989 15.551 12.3897 15.4103 12.5303C15.2697 12.671 15.0789 12.75 14.88 12.75Z" fill="white"/>
<path d="M12.65 16.1001C12.46 16.1001 12.27 16.0301 12.12 15.8801C11.9806 15.739 11.9023 15.5485 11.9023 15.3501C11.9023 15.1517 11.9806 14.9612 12.12 14.8201L14.94 12.0001L12.12 9.18009C11.9806 9.03895 11.9023 8.84852 11.9023 8.65009C11.9023 8.45166 11.9806 8.26123 12.12 8.12009C12.41 7.83009 12.89 7.83009 13.18 8.12009L16.53 11.4701C16.82 11.7601 16.82 12.2401 16.53 12.5301L13.18 15.8801C13.03 16.0301 12.84 16.1001 12.65 16.1001Z" fill="white"/>
</svg>
